<svg width="205" height="34" viewBox="0 0 205 34" fill="none" xmlns="http://www.w3.org/2000/svg">
<path d="M203.868 3.82726C203.427 2.69525 202.675 1.72496 201.714 1.0438C200.748 0.362634 199.615 0 198.454 0C196.908 0 195.422 0.64196 194.326 1.79357C193.225 2.94518 192.608 4.50352 192.598 6.13538C192.589 7.3605 192.928 8.56111 193.564 9.58041C194.2 10.6046 195.115 11.4034 196.183 11.8787C197.251 12.3541 198.431 12.4815 199.568 12.2512C200.706 12.0159 201.755 11.4328 202.577 10.5703C203.399 9.70782 203.961 8.60521 204.193 7.4046C204.425 6.20399 204.309 4.95927 203.868 3.82726ZM202.313 8.91394C201.802 9.71762 201.073 10.3449 200.223 10.7173C199.373 11.0848 198.44 11.1829 197.539 10.9917C196.638 10.8006 195.812 10.3351 195.162 9.64901C194.511 8.96295 194.07 8.09066 193.894 7.13997C193.713 6.18928 193.81 5.20429 194.159 4.30751C194.511 3.41072 195.106 2.64625 195.872 2.1072C196.638 1.56815 197.534 1.27902 198.454 1.27902C199.067 1.27902 199.67 1.40643 200.232 1.65145C200.794 1.89648 201.31 2.25911 201.741 2.71486C202.173 3.1706 202.517 3.71455 202.749 4.30751C202.981 4.90536 203.102 5.54242 203.102 6.18929C203.097 7.15958 202.828 8.11027 202.313 8.91394Z" fill="white"/>
<path d="M199.523 6.85591C199.451 6.76336 199.451 6.71709 199.586 6.67545C200.006 6.54589 200.368 6.27288 200.595 5.90733C200.826 5.54177 200.904 5.11144 200.826 4.69036C200.744 4.27391 200.513 3.89448 200.16 3.63073C199.813 3.36698 199.379 3.23278 198.935 3.25592H196.068C195.88 3.25592 195.88 3.25592 195.88 3.43638V6.16182L195.851 8.91966C195.851 9.04922 195.89 9.09087 196.03 9.09087H196.922C197.135 9.09087 197.135 9.09087 197.135 8.88727V6.92995C197.135 6.80964 197.168 6.76799 197.294 6.76799H197.801C197.859 6.75874 197.916 6.76799 197.97 6.79576C198.023 6.82352 198.066 6.86516 198.09 6.91144L199.509 8.95205C199.538 8.99832 199.576 9.03534 199.625 9.0631C199.673 9.08624 199.731 9.09549 199.784 9.09087H200.908C200.961 9.09087 201.034 9.13251 201.053 9.09087C201.072 9.04922 201 9.0122 201 8.97056L199.523 6.85591ZM199.224 5.50938C199.137 5.55566 199.031 5.58342 198.93 5.57879H198.119H197.279C197.13 5.58805 197.13 5.5464 197.13 5.43998V4.58394C197.13 4.49139 197.164 4.44512 197.275 4.44512H198.886C199.026 4.44049 199.161 4.47751 199.272 4.55618C199.383 4.63484 199.465 4.74589 199.499 4.87545C199.533 4.99576 199.523 5.1207 199.47 5.23638C199.422 5.34743 199.34 5.4446 199.224 5.50938Z" fill="white"/>
<path d="M27.1879 8.53659C24.5371 6.32544 20.59 5.20532 15.4583 5.20532H0V33.1841H15.4583C20.59 33.1841 24.5322 32.0785 27.1879 29.8916C29.8727 27.6562 31.2321 24.0583 31.2321 19.1947C31.2321 14.3311 29.8679 10.7429 27.1879 8.53659ZM21.2066 23.7528C20.6871 24.7856 19.886 25.5033 18.7548 25.9494C17.5945 26.3906 15.9583 26.6185 13.8901 26.6185H8.94288V11.7709H13.8852C15.9486 11.7709 17.5847 12.0085 18.7548 12.4788C19.886 12.9007 20.6871 13.6086 21.2066 14.6415C21.7649 15.7034 22.0465 17.2357 22.0465 19.1947C22.0513 21.1537 21.7697 22.686 21.2066 23.7528Z" fill="white"/>
<path d="M44.0619 22.4581H61.2446V15.9313H44.0619V11.6933H62.5965L62.548 5.20532H35.1362V33.1841H63.115V26.6185H44.0619V22.4581Z" fill="white"/>
<path d="M89.2495 21.5414L77.2534 5.20532H67.019V33.1841H75.3701V15.8997L88.1642 33.1841H97.6005V5.20532H89.2495V21.5414Z" fill="white"/>
<path d="M161.905 6.29486C159.402 5.1411 156.373 4.55469 152.905 4.55469C149.437 4.55469 146.398 5.1411 143.871 6.29486C141.339 7.43432 139.371 9.10774 138.02 11.2627C136.67 13.389 135.99 15.9397 135.99 18.8479C135.99 21.7514 136.675 24.3164 138.02 26.4713C139.371 28.6263 141.339 30.3093 143.871 31.4821C146.398 32.612 149.437 33.1841 152.905 33.1841C156.373 33.1841 159.397 32.612 161.905 31.4821C164.461 30.314 166.443 28.6311 167.794 26.4761C169.14 24.3259 169.825 21.7609 169.825 18.8527C169.825 15.9445 169.14 13.3938 167.794 11.2675C166.439 9.10774 164.456 7.43432 161.905 6.29486ZM159.816 22.9576C159.271 24.1066 158.413 25.022 157.275 25.6751C156.117 26.3188 154.646 26.643 152.905 26.643C151.164 26.643 149.692 26.3188 148.54 25.6799C147.392 25.022 146.519 24.1018 145.95 22.9576C145.39 21.78 145.106 20.3974 145.106 18.8479C145.106 17.2985 145.39 15.9111 145.945 14.743C146.514 13.5941 147.387 12.6882 148.53 12.0541C149.688 11.4105 151.159 11.0863 152.9 11.0863C154.641 11.0863 156.112 11.4105 157.27 12.0541C158.408 12.6882 159.267 13.5893 159.816 14.743C160.4 15.9159 160.694 17.2985 160.694 18.8479C160.694 20.3974 160.405 21.7753 159.816 22.9576Z" fill="white"/>
<path d="M183.213 26.6185V5.20532H174.379V33.1841H201.057L201.004 26.6185H183.213Z" fill="white"/>
<path d="M130.434 10.6898C130.222 10.2808 129.985 10.0161 129.985 10.0161C128.723 8.52927 127.07 7.26857 125.068 6.26289C122.81 5.1273 119.89 4.55469 116.385 4.55469C113.828 4.55469 111.56 4.88189 109.636 5.52668C107.673 6.1859 106.126 7.16271 105.034 8.44747C103.951 9.74667 103.404 11.3201 103.404 13.1198C103.404 15.6941 104.299 17.7007 106.073 19.0913C107.77 20.3953 110.25 21.3673 113.436 21.988L117.956 22.8541C119.059 23.0562 119.953 23.2776 120.611 23.5037C121.21 23.7107 121.655 23.9657 121.964 24.2929C122.22 24.5287 122.341 24.827 122.341 25.2312C122.341 25.8952 122.017 26.3812 121.312 26.7614C120.553 27.1848 119.402 27.4013 117.894 27.4013C116.245 27.4013 114.688 27.0356 113.272 26.3235C111.894 25.6161 110.729 24.4661 109.805 22.9119L109.646 22.6424H101.504L101.533 23.215C101.538 23.2728 101.601 24.4228 102.051 25.5584L101.969 25.5921L102.292 26.1358C105.314 31.2412 110.535 33.8348 117.816 33.8348C120.48 33.8348 122.844 33.4787 124.855 32.781C126.92 32.0448 128.544 30.9669 129.69 29.5859C130.85 28.1568 131.435 26.4534 131.435 24.5287C131.435 22.6809 130.942 21.1267 129.975 19.9141C129.052 18.716 127.8 17.7873 126.277 17.1569C124.821 16.5121 123.047 15.9876 121.007 15.5883L116.492 14.7221C115.418 14.52 114.567 14.3035 113.987 14.087C113.431 13.856 113.03 13.6106 112.793 13.3556C112.595 13.139 112.503 12.8936 112.503 12.5857C112.503 11.4837 113.784 10.9304 116.313 10.9304C117.811 10.9304 119.252 11.2432 120.606 11.8687C121.95 12.4606 123.081 13.2978 123.975 14.3564L124.14 14.5489H131.416L131.425 14.0148C131.43 13.933 131.44 12.5568 130.434 10.6898Z" fill="white"/>
</svg>
