<svg width="17" height="17" viewBox="0 0 17 17" fill="none" xmlns="http://www.w3.org/2000/svg">
<path d="M12.2163 5.09473C10.5952 5.09473 9.49519 5.96317 9.03202 6.83161H8.97412V5.38421H5.73193V16.2108H9.08992V10.8265C9.08992 9.43695 9.3794 8.04744 11.1163 8.04744C12.8532 8.04744 12.8532 9.66853 12.8532 10.9422V16.2108H16.2112V10.2475C16.2691 7.35268 15.6322 5.09473 12.2163 5.09473Z" fill="white"/>
<path d="M3.64754 5.38416H0.289551V16.2108H3.64754V5.38416Z" fill="white"/>
<path d="M1.96847 0C0.868445 0 0 0.868444 0 1.96847C0 3.0685 0.868445 3.93695 1.96847 3.93695C3.0685 3.93695 3.93695 3.0685 3.93695 1.96847C3.93695 0.868444 3.0685 0 1.96847 0Z" fill="white"/>
</svg>
