<svg width="20" height="17" viewBox="0 0 20 17" fill="none" xmlns="http://www.w3.org/2000/svg">
<path d="M20.0022 1.961C19.2832 2.28784 18.4988 2.48394 17.649 2.61467C18.4988 2.09174 19.1525 1.30734 19.4793 0.326834C18.6949 0.784401 17.8451 1.11123 16.8646 1.30734C16.1456 0.522934 15.0344 0 13.8578 0C11.5699 0 9.80501 1.83027 9.80501 4.11811C9.80501 4.44494 9.80501 4.77177 9.87038 5.03324C6.47131 4.90251 3.46444 3.26834 1.43807 0.784401C1.11123 1.3727 0.849768 2.09174 0.849768 2.87614C0.915135 4.24884 1.63417 5.49081 2.68004 6.20984C2.02637 6.20984 1.3727 6.01374 0.849768 5.68691C0.849768 5.68691 0.849768 5.68691 0.849768 5.75228C0.849768 7.71328 2.28784 9.41281 4.11811 9.73965C3.79127 9.80501 3.39907 9.87038 3.07224 9.87038C2.81077 9.87038 2.5493 9.87038 2.28784 9.80501C2.81077 11.4392 4.31421 12.6158 6.07911 12.6812C4.70641 13.7924 2.9415 14.4461 0.980501 14.4461C0.653668 14.4461 0.326834 14.4461 0 14.3807C1.83027 15.5573 3.98737 16.211 6.27521 16.211C13.7924 16.211 17.9105 10.0011 17.9105 4.57567C17.9105 4.37957 17.9105 4.24884 17.9105 4.05274C18.7603 3.46444 19.4139 2.7454 20.0022 1.961Z" fill="white"/>
</svg>
