<svg width="16" height="16" viewBox="0 0 16 16" fill="none" xmlns="http://www.w3.org/2000/svg">
<g clip-path="url(#clip0_76_1799)">
<path d="M15.9126 4.72131C15.9126 3.847 15.7377 3.3224 15.5628 2.79781C15.388 2.27322 15.0383 1.74863 14.6011 1.39891C14.1639 0.961749 13.7268 0.699454 13.2022 0.437159C12.6776 0.262295 12.153 0.0874317 11.2787 0.0874317C10.4044 0 10.1421 0 8.04372 0C5.94536 0 5.59563 0 4.72131 0.0874317C3.847 0.0874317 3.3224 0.262295 2.79781 0.437159C2.18579 0.612022 1.74863 0.961749 1.31148 1.31148C0.961749 1.74863 0.612022 2.18579 0.437159 2.79781C0.262295 3.23497 0.0874317 3.847 0.0874317 4.72131C0 5.59563 0 5.85792 0 8.04372C0 10.2295 0 10.4918 0.0874317 11.3661C0.0874317 12.2404 0.262295 12.765 0.437159 13.2896C0.612022 13.8142 0.961749 14.3388 1.39891 14.6885C1.83607 15.1257 2.27322 15.388 2.79781 15.6503C3.3224 15.8251 3.847 16 4.72131 16C5.59563 16 5.85792 16.0874 8.04372 16.0874C10.2295 16.0874 10.4918 16.0874 11.3661 16C12.2404 16 12.765 15.8251 13.2896 15.6503C14.3388 15.2131 15.2131 14.4262 15.6503 13.2896C15.8251 12.765 16 12.2404 16 11.3661C16 10.4918 16.0874 10.2295 16.0874 8.04372C16.0874 5.85792 16 5.59563 15.9126 4.72131ZM14.5137 11.2787C14.5137 12.0656 14.3388 12.5027 14.2514 12.765C13.9891 13.4645 13.4645 13.9891 12.765 14.2514C12.5027 14.3388 12.0656 14.5137 11.2787 14.5137C10.4044 14.5137 10.1421 14.6011 8.04372 14.6011C5.94536 14.6011 5.68306 14.6011 4.80874 14.5137C4.02186 14.5137 3.5847 14.3388 3.3224 14.2514C2.97268 14.1639 2.62295 13.9016 2.36066 13.6393C2.09836 13.3771 1.9235 13.0273 1.74863 12.6776C1.6612 12.4153 1.48634 11.9781 1.48634 11.1913C1.48634 10.3169 1.39891 10.0546 1.39891 7.95629C1.39891 5.85792 1.39891 5.59563 1.48634 4.72131C1.48634 3.93443 1.6612 3.49727 1.74863 3.23497C1.9235 2.97268 2.09836 2.62295 2.36066 2.36066C2.62295 2.09836 2.97268 1.9235 3.3224 1.74863C3.5847 1.6612 4.02186 1.48634 4.80874 1.48634C5.68306 1.48634 5.94536 1.39891 8.04372 1.39891C10.1421 1.39891 10.4044 1.39891 11.2787 1.48634C12.0656 1.48634 12.5027 1.6612 12.765 1.74863C13.1148 1.83607 13.4645 2.09836 13.7268 2.36066C13.9891 2.62295 14.1639 2.97268 14.3388 3.3224C14.4262 3.5847 14.6011 4.02186 14.6011 4.80874C14.6011 5.68306 14.6885 5.94536 14.6885 8.04372C14.6885 10.1421 14.5137 10.4044 14.5137 11.2787Z" fill="white"/>
<path d="M8.04386 3.93445C5.77064 3.93445 3.93457 5.77051 3.93457 8.04374C3.93457 10.317 5.77064 12.153 8.04386 12.153C10.3171 12.153 12.1531 10.317 12.1531 8.04374C12.1531 5.77051 10.2297 3.93445 8.04386 3.93445ZM8.04386 10.6667C6.55752 10.6667 5.42091 9.44264 5.42091 8.04374C5.42091 6.64483 6.64495 5.42079 8.04386 5.42079C9.5302 5.42079 10.6668 6.64483 10.6668 8.04374C10.6668 9.44264 9.44277 10.6667 8.04386 10.6667Z" fill="white"/>
<path d="M13.2023 3.75957C13.2023 4.28416 12.7651 4.72132 12.2406 4.72132C11.716 4.72132 11.2788 4.28416 11.2788 3.75957C11.2788 3.23498 11.716 2.79782 12.2406 2.79782C12.7651 2.79782 13.2023 3.23498 13.2023 3.75957Z" fill="white"/>
</g>
<defs>
<clipPath id="clip0_76_1799">
<rect width="16" height="16" fill="white"/>
</clipPath>
</defs>
</svg>
