<svg width="40" height="40" viewBox="0 0 40 40" fill="none" xmlns="http://www.w3.org/2000/svg">
<circle cx="20" cy="20" r="20" fill="#1674B4"/>
<path d="M24.344 16.8152C22.6301 16.8152 21.467 17.7334 20.9773 18.6515H20.9161V17.1212H17.4883V28.5678H21.0386V22.8751C21.0386 21.4061 21.3446 19.937 23.181 19.937C25.0173 19.937 25.0173 21.6509 25.0173 22.9976V28.5678H28.5676V22.263C28.6288 19.2024 27.9555 16.8152 24.344 16.8152Z" fill="white"/>
<path d="M15.2846 17.1211H11.7344V28.5677H15.2846V17.1211Z" fill="white"/>
<path d="M13.5099 11.4285C12.3469 11.4285 11.4287 12.3466 11.4287 13.5097C11.4287 14.6727 12.3469 15.5909 13.5099 15.5909C14.6729 15.5909 15.5911 14.6727 15.5911 13.5097C15.5911 12.3466 14.6729 11.4285 13.5099 11.4285Z" fill="white"/>
</svg>
