<svg width="40" height="40" viewBox="0 0 40 40" fill="none" xmlns="http://www.w3.org/2000/svg">
<circle cx="20" cy="20" r="20" fill="#BE081B"/>
<path fill-rule="evenodd" clip-rule="evenodd" d="M18.4745 7.67574C17.0659 7.93322 15.6701 8.39903 14.7736 8.91069C12.7161 10.085 11.1139 12.258 10.7021 14.4325C10.658 14.6652 10.5874 15.0389 10.5452 15.263C10.3282 16.4143 10.6407 18.2515 11.2711 19.5319C11.782 20.5695 12.6942 21.5591 13.456 21.9022C13.7771 22.0468 13.82 22.0502 13.9279 21.9404C14.0504 21.8158 14.4674 20.3053 14.47 19.9769C14.4708 19.8752 14.3918 19.6849 14.2945 19.554C13.6941 18.7465 13.263 17.3935 13.263 16.3167C13.263 15.7837 13.4464 14.8605 13.6751 14.2416C14.21 12.795 15.4585 11.458 16.9009 10.7876C18.3211 10.1274 20.4582 10.0007 22.0837 10.4804C24.106 11.0771 25.5306 12.5785 25.9889 14.5966C26.2415 15.7088 26.1156 17.7765 25.7247 18.9333C25.5095 19.57 25.0078 20.5059 24.6094 21.0137C24.1886 21.5501 23.2575 22.2085 22.6358 22.4095C21.9898 22.6182 20.8827 22.5939 20.4383 22.3611C19.9784 22.1202 19.704 21.8471 19.4871 21.4142C19.1574 20.7564 19.2336 20.142 19.9016 18.0689C20.6096 15.8721 20.7079 14.9436 20.3169 14.1472C20.0404 13.5837 19.5675 13.2369 18.9728 13.1612C17.7553 13.0063 16.7017 13.782 16.1731 15.2226C16.0103 15.6665 15.9821 15.871 15.9825 16.6069C15.9829 17.4588 16.0204 17.7145 16.2563 18.4701C16.3916 18.9036 16.4299 18.7185 15.0939 24.0842L14.5194 26.3913L14.5143 28.0064C14.5093 29.5947 14.6384 31.1276 14.7944 31.3325C14.8347 31.3854 14.9107 31.4287 14.9634 31.4287C15.1224 31.4287 16.413 29.3339 16.8825 28.314C17.3109 27.3834 17.4453 26.9544 18.184 24.1611C18.2735 23.8227 18.3686 23.52 18.3953 23.4883C18.422 23.4567 18.6292 23.6058 18.8558 23.8196C19.6412 24.5611 20.6635 24.9156 21.9866 24.9054C24.6986 24.8844 27.1774 23.2301 28.4928 20.5634C28.8945 19.7489 29.2309 18.7541 29.3998 17.8811C29.5653 17.026 29.5657 15.1394 29.4006 14.3834C28.973 12.4246 28.0295 10.9026 26.4016 9.54554C25.5288 8.81802 24.3809 8.27768 22.7797 7.84085C22.1378 7.66574 21.8948 7.64274 20.476 7.62244C19.6037 7.60998 18.703 7.6339 18.4745 7.67574Z" fill="#FEFEFF"/>
</svg>
