<svg width="40" height="40" viewBox="0 0 40 40" fill="none" xmlns="http://www.w3.org/2000/svg">
<circle cx="20" cy="20" r="20" fill="#252525"/>
<path d="M15.4766 15.238H24.5242V13.3332C24.5242 11.4285 23.8099 10.4761 21.667 10.4761H18.3337C16.1908 10.4761 15.4766 11.4285 15.4766 13.3332V15.238Z" stroke="white" stroke-width="1.5" stroke-miterlimit="10" stroke-linecap="round" stroke-linejoin="round"/>
<path d="M23.8095 22.8572V26.6667C23.8095 28.5715 22.8571 29.5238 20.9523 29.5238H19.0476C17.1428 29.5238 16.1904 28.5715 16.1904 26.6667V22.8572H23.8095Z" stroke="white" stroke-width="1.5" stroke-miterlimit="10" stroke-linecap="round" stroke-linejoin="round"/>
<path d="M28.5716 18.0952V22.8571C28.5716 24.7618 27.6192 25.7142 25.7144 25.7142H23.8097V22.8571H16.1906V25.7142H14.2859C12.3811 25.7142 11.4287 24.7618 11.4287 22.8571V18.0952C11.4287 16.1904 12.3811 15.238 14.2859 15.238H25.7144C27.6192 15.238 28.5716 16.1904 28.5716 18.0952Z" stroke="white" stroke-width="1.5" stroke-miterlimit="10" stroke-linecap="round" stroke-linejoin="round"/>
<path d="M24.7621 22.8572H23.6097H15.2383" stroke="white" stroke-width="1.5" stroke-miterlimit="10" stroke-linecap="round" stroke-linejoin="round"/>
<path d="M15.2383 19.0476H18.0954" stroke="white" stroke-width="1.5" stroke-miterlimit="10" stroke-linecap="round" stroke-linejoin="round"/>
</svg>
