<svg width="40" height="40" viewBox="0 0 40 40" fill="none" xmlns="http://www.w3.org/2000/svg">
<circle cx="20" cy="20" r="20" fill="#58AEE7"/>
<path d="M30.4758 13.4826C29.7226 13.825 28.901 14.0304 28.0108 14.1673C28.901 13.6196 29.5857 12.7979 29.928 11.7708C29.1064 12.2501 28.2162 12.5925 27.1892 12.7979C26.436 11.9762 25.272 11.4285 24.0395 11.4285C21.643 11.4285 19.7942 13.3457 19.7942 15.7422C19.7942 16.0846 19.7942 16.4269 19.8627 16.7008C16.3021 16.5639 13.1524 14.8521 11.0298 12.2501C10.6875 12.8664 10.4136 13.6196 10.4136 14.4412C10.482 15.8791 11.2352 17.1801 12.3308 17.9333C11.6461 17.9333 10.9613 17.7279 10.4136 17.3855C10.4136 17.3855 10.4136 17.3855 10.4136 17.454C10.4136 19.5081 11.92 21.2884 13.8372 21.6308C13.4948 21.6992 13.084 21.7677 12.7416 21.7677C12.4677 21.7677 12.1938 21.7677 11.92 21.6992C12.4677 23.411 14.0426 24.6435 15.8913 24.712C14.4534 25.876 12.6047 26.5607 10.5505 26.5607C10.2082 26.5607 9.8658 26.5607 9.52344 26.4923C11.4406 27.7248 13.7002 28.4095 16.0967 28.4095C23.971 28.4095 28.2847 21.9047 28.2847 16.2215C28.2847 16.0161 28.2847 15.8791 28.2847 15.6737C29.1749 15.0575 29.8596 14.3043 30.4758 13.4826Z" fill="white"/>
</svg>
